<svg width="21" height="20" viewBox="0 0 21 20" fill="none" xmlns="http://www.w3.org/2000/svg">
<path d="M7.33333 5.83333V12.5C7.33333 13.4205 8.07953 14.1667 9 14.1667H14M7.33333 5.83333V4.16667C7.33333 3.24619 8.07953 2.5 9 2.5H12.8215C13.0425 2.5 13.2545 2.5878 13.4107 2.74408L17.0893 6.42259C17.2455 6.57887 17.3333 6.79083 17.3333 7.01184V12.5C17.3333 13.4205 16.5871 14.1667 15.6667 14.1667H14M7.33333 5.83333H5.66667C4.74619 5.83333 4 6.57953 4 7.5V15.8333C4 16.7538 4.74619 17.5 5.66667 17.5H12.3333C13.2538 17.5 14 16.7538 14 15.8333V14.1667" stroke="#6B7280" stroke-width="1.33333" stroke-linecap="round" stroke-linejoin="round"/>
</svg>
