<svg width="39" height="39" viewBox="0 0 39 39" fill="none" xmlns="http://www.w3.org/2000/svg">
<g clip-path="url(#clip0_14_6772)">
<path d="M19.5 39C28.0449 39 32.7951 39 35.8976 35.8976C39 32.7951 39 28.0478 39 19.5C39 10.9522 39 6.20486 35.8976 3.10243C32.7951 0 28.0449 0 19.5 0C10.9551 0 6.20486 0 3.10243 3.10243C0 6.20486 0 10.9551 0 19.5C0 28.0449 0 32.7951 3.10243 35.8976C6.20486 39 10.9551 39 19.5 39Z" fill="black"/>
<path d="M26.8238 15.6444C25.3507 15.6444 24.2574 16.7816 24.2574 18.1846C24.2574 19.3303 25.0629 20.2241 26.0826 20.4886L23.9922 23.6908H25.9447L27.7219 20.7107H29.0521V23.6908H30.6822V15.6444H26.8238ZM27.048 19.3494C26.3775 19.3494 25.9624 18.8232 25.9624 18.2235C25.9624 17.6238 26.3429 17.0524 27.048 17.0524H29.0542V19.3494H27.048Z" fill="white"/>
<path d="M17.8967 15.6444L17.3557 17.1337L19.5756 17.121L18.2609 21.9426C17.8861 23.3485 19.3514 24.4107 20.6017 23.584L23.4453 21.6548L22.608 20.4243L19.7679 22.3917L21.6823 15.6444H17.8967Z" fill="white"/>
<path d="M20.9583 14.6099C21.5813 14.6099 22.0863 14.1549 22.0863 13.5936C22.0863 13.0324 21.5813 12.5774 20.9583 12.5774C20.3353 12.5774 19.8303 13.0324 19.8303 13.5936C19.8303 14.1549 20.3353 14.6099 20.9583 14.6099Z" fill="white"/>
<path d="M15.2046 22.2056V13.7745H8.9495V18.2744C8.9495 20.3917 8.33638 21.7007 7.975 22.2021H7.23389V25.8795H8.82009V23.7056H14.7506V25.883H16.3361V22.2056H15.2046ZM10.5265 18.1817V15.2702H13.5781V22.2007H9.63902C9.99614 21.6165 10.5265 20.1301 10.5265 18.1817Z" fill="white"/>
</g>
<defs>
<clipPath id="clip0_14_6772">
<rect width="39" height="39" fill="white"/>
</clipPath>
</defs>
</svg>
