<svg width="17" height="18" viewBox="0 0 17 18" fill="none" xmlns="http://www.w3.org/2000/svg">
<path fill-rule="evenodd" clip-rule="evenodd" d="M15.0003 8.99992C15.0003 12.6818 12.0156 15.6666 8.33366 15.6666C4.65176 15.6666 1.66699 12.6818 1.66699 8.99992C1.66699 5.31802 4.65176 2.33325 8.33366 2.33325C12.0156 2.33325 15.0003 5.31802 15.0003 8.99992ZM9.16699 5.66659C9.16699 6.12682 8.7939 6.49992 8.33366 6.49992C7.87342 6.49992 7.50033 6.12682 7.50033 5.66659C7.50033 5.20635 7.87342 4.83325 8.33366 4.83325C8.7939 4.83325 9.16699 5.20635 9.16699 5.66659ZM7.50033 8.16659C7.04009 8.16659 6.66699 8.53968 6.66699 8.99992C6.66699 9.46016 7.04009 9.83325 7.50033 9.83325V12.3333C7.50033 12.7935 7.87342 13.1666 8.33366 13.1666H9.16699C9.62723 13.1666 10.0003 12.7935 10.0003 12.3333C10.0003 11.873 9.62723 11.4999 9.16699 11.4999V8.99992C9.16699 8.53968 8.7939 8.16659 8.33366 8.16659H7.50033Z" fill="#9CA3AF"/>
</svg>
